<svg id="visual" viewBox="0 0 1440 600" preserveAspectRatio='xMidYMid meet' xmlns="http://www.w3.org/2000/svg" xmlns:xlink="http://www.w3.org/1999/xlink" version="1.1"><path d="M0 274L17.2 263.7C34.3 253.3 68.7 232.7 103 230.2C137.3 227.7 171.7 243.3 206 256.8C240.3 270.3 274.7 281.7 308.8 278.2C343 274.7 377 256.3 411.2 255.7C445.3 255 479.7 272 514 276.8C548.3 281.7 582.7 274.3 617 276.5C651.3 278.7 685.7 290.3 720 289.3C754.3 288.3 788.7 274.7 823 259.5C857.3 244.3 891.7 227.7 926 228.7C960.3 229.7 994.7 248.3 1028.8 257.8C1063 267.3 1097 267.7 1131.2 260.8C1165.3 254 1199.7 240 1234 234.2C1268.3 228.3 1302.7 230.7 1337 240.2C1371.3 249.7 1405.7 266.3 1422.8 274.7L1440 283L1440 0L1422.8 0C1405.7 0 1371.3 0 1337 0C1302.7 0 1268.3 0 1234 0C1199.7 0 1165.3 0 1131.2 0C1097 0 1063 0 1028.8 0C994.7 0 960.3 0 926 0C891.7 0 857.3 0 823 0C788.7 0 754.3 0 720 0C685.7 0 651.3 0 617 0C582.7 0 548.3 0 514 0C479.7 0 445.3 0 411.2 0C377 0 343 0 308.8 0C274.7 0 240.3 0 206 0C171.7 0 137.3 0 103 0C68.7 0 34.3 0 17.2 0L0 0Z" fill="#ff512f"></path><path d="M0 221L17.2 229.2C34.3 237.3 68.7 253.7 103 260C137.3 266.3 171.7 262.7 206 256.7C240.3 250.7 274.7 242.3 308.8 242.5C343 242.7 377 251.3 411.2 247.8C445.3 244.3 479.7 228.7 514 222.3C548.3 216 582.7 219 617 220.2C651.3 221.3 685.7 220.7 720 224.2C754.3 227.7 788.7 235.3 823 242.8C857.3 250.3 891.7 257.7 926 261.5C960.3 265.3 994.7 265.7 1028.8 266.2C1063 266.7 1097 267.3 1131.2 255.5C1165.3 243.7 1199.7 219.3 1234 218.7C1268.3 218 1302.7 241 1337 241.2C1371.3 241.3 1405.7 218.7 1422.8 207.3L1440 196L1440 0L1422.8 0C1405.7 0 1371.3 0 1337 0C1302.7 0 1268.3 0 1234 0C1199.7 0 1165.3 0 1131.2 0C1097 0 1063 0 1028.8 0C994.7 0 960.3 0 926 0C891.7 0 857.3 0 823 0C788.7 0 754.3 0 720 0C685.7 0 651.3 0 617 0C582.7 0 548.3 0 514 0C479.7 0 445.3 0 411.2 0C377 0 343 0 308.8 0C274.7 0 240.3 0 206 0C171.7 0 137.3 0 103 0C68.7 0 34.3 0 17.2 0L0 0Z" fill="#ff7a58"></path><path d="M0 196L17.2 193.3C34.3 190.7 68.7 185.3 103 188.2C137.3 191 171.7 202 206 205.5C240.3 209 274.7 205 308.8 211.3C343 217.7 377 234.3 411.2 232.7C445.3 231 479.7 211 514 197.8C548.3 184.7 582.7 178.3 617 183.7C651.3 189 685.7 206 720 211.2C754.3 216.3 788.7 209.7 823 213.2C857.3 216.7 891.7 230.3 926 238.2C960.3 246 994.7 248 1028.8 235.7C1063 223.3 1097 196.7 1131.2 188.3C1165.3 180 1199.7 190 1234 199.5C1268.3 209 1302.7 218 1337 216C1371.3 214 1405.7 201 1422.8 194.5L1440 188L1440 0L1422.8 0C1405.7 0 1371.3 0 1337 0C1302.7 0 1268.3 0 1234 0C1199.7 0 1165.3 0 1131.2 0C1097 0 1063 0 1028.8 0C994.7 0 960.3 0 926 0C891.7 0 857.3 0 823 0C788.7 0 754.3 0 720 0C685.7 0 651.3 0 617 0C582.7 0 548.3 0 514 0C479.7 0 445.3 0 411.2 0C377 0 343 0 308.8 0C274.7 0 240.3 0 206 0C171.7 0 137.3 0 103 0C68.7 0 34.3 0 17.2 0L0 0Z" fill="#ff9c82"></path><path d="M0 226L17.2 218.8C34.3 211.7 68.7 197.3 103 193C137.3 188.7 171.7 194.3 206 194.8C240.3 195.3 274.7 190.7 308.8 190.2C343 189.7 377 193.3 411.2 200.5C445.3 207.7 479.7 218.3 514 215.5C548.3 212.7 582.7 196.3 617 196C651.3 195.7 685.7 211.3 720 217.3C754.3 223.3 788.7 219.7 823 211.2C857.3 202.7 891.7 189.3 926 183.7C960.3 178 994.7 180 1028.8 181.3C1063 182.7 1097 183.3 1131.2 181.8C1165.3 180.3 1199.7 176.7 1234 184C1268.3 191.3 1302.7 209.7 1337 214C1371.3 218.3 1405.7 208.7 1422.8 203.8L1440 199L1440 0L1422.8 0C1405.7 0 1371.3 0 1337 0C1302.7 0 1268.3 0 1234 0C1199.7 0 1165.3 0 1131.2 0C1097 0 1063 0 1028.8 0C994.7 0 960.3 0 926 0C891.7 0 857.3 0 823 0C788.7 0 754.3 0 720 0C685.7 0 651.3 0 617 0C582.7 0 548.3 0 514 0C479.7 0 445.3 0 411.2 0C377 0 343 0 308.8 0C274.7 0 240.3 0 206 0C171.7 0 137.3 0 103 0C68.7 0 34.3 0 17.2 0L0 0Z" fill="#fbbdac"></path><path d="M0 137L17.2 138.8C34.3 140.7 68.7 144.3 103 145.5C137.3 146.7 171.7 145.3 206 145C240.3 144.7 274.7 145.3 308.8 154.8C343 164.3 377 182.7 411.2 192.3C445.3 202 479.7 203 514 204.5C548.3 206 582.7 208 617 198.5C651.3 189 685.7 168 720 160C754.3 152 788.7 157 823 157.2C857.3 157.3 891.7 152.7 926 151.3C960.3 150 994.7 152 1028.8 154C1063 156 1097 158 1131.2 164.8C1165.3 171.7 1199.7 183.3 1234 182.5C1268.3 181.7 1302.7 168.3 1337 167.2C1371.3 166 1405.7 177 1422.8 182.5L1440 188L1440 0L1422.8 0C1405.7 0 1371.3 0 1337 0C1302.7 0 1268.3 0 1234 0C1199.7 0 1165.3 0 1131.2 0C1097 0 1063 0 1028.8 0C994.7 0 960.3 0 926 0C891.7 0 857.3 0 823 0C788.7 0 754.3 0 720 0C685.7 0 651.3 0 617 0C582.7 0 548.3 0 514 0C479.7 0 445.3 0 411.2 0C377 0 343 0 308.8 0C274.7 0 240.3 0 206 0C171.7 0 137.3 0 103 0C68.7 0 34.3 0 17.2 0L0 0Z" fill="#f0ddd8"></path><path d="M0 122L17.2 127.3C34.3 132.7 68.7 143.3 103 150.8C137.3 158.3 171.7 162.7 206 158.5C240.3 154.3 274.7 141.7 308.8 133.8C343 126 377 123 411.2 128.8C445.3 134.7 479.7 149.3 514 158C548.3 166.7 582.7 169.3 617 166.2C651.3 163 685.7 154 720 152.7C754.3 151.3 788.7 157.7 823 159.3C857.3 161 891.7 158 926 150.3C960.3 142.7 994.7 130.3 1028.8 126C1063 121.7 1097 125.3 1131.2 136.3C1165.3 147.3 1199.7 165.7 1234 173.3C1268.3 181 1302.7 178 1337 171.3C1371.3 164.7 1405.7 154.3 1422.8 149.2L1440 144L1440 0L1422.8 0C1405.7 0 1371.3 0 1337 0C1302.7 0 1268.3 0 1234 0C1199.7 0 1165.3 0 1131.2 0C1097 0 1063 0 1028.8 0C994.7 0 960.3 0 926 0C891.7 0 857.3 0 823 0C788.7 0 754.3 0 720 0C685.7 0 651.3 0 617 0C582.7 0 548.3 0 514 0C479.7 0 445.3 0 411.2 0C377 0 343 0 308.8 0C274.7 0 240.3 0 206 0C171.7 0 137.3 0 103 0C68.7 0 34.3 0 17.2 0L0 0Z" fill="#eaeaea"></path><path d="M0 127L17.2 128C34.3 129 68.7 131 103 135.3C137.3 139.7 171.7 146.3 206 143.8C240.3 141.3 274.7 129.7 308.8 127.8C343 126 377 134 411.2 140.7C445.3 147.3 479.7 152.7 514 151.7C548.3 150.7 582.7 143.3 617 143C651.3 142.7 685.7 149.3 720 148C754.3 146.7 788.7 137.3 823 128.8C857.3 120.3 891.7 112.7 926 112.3C960.3 112 994.7 119 1028.8 128.3C1063 137.7 1097 149.3 1131.2 153C1165.3 156.7 1199.7 152.3 1234 148.7C1268.3 145 1302.7 142 1337 141.2C1371.3 140.3 1405.7 141.7 1422.8 142.3L1440 143L1440 0L1422.8 0C1405.7 0 1371.3 0 1337 0C1302.7 0 1268.3 0 1234 0C1199.7 0 1165.3 0 1131.2 0C1097 0 1063 0 1028.8 0C994.7 0 960.3 0 926 0C891.7 0 857.3 0 823 0C788.7 0 754.3 0 720 0C685.7 0 651.3 0 617 0C582.7 0 548.3 0 514 0C479.7 0 445.3 0 411.2 0C377 0 343 0 308.8 0C274.7 0 240.3 0 206 0C171.7 0 137.3 0 103 0C68.7 0 34.3 0 17.2 0L0 0Z" fill="#eaeaea"></path><path d="M0 132L17.2 128.3C34.3 124.7 68.7 117.3 103 115C137.3 112.7 171.7 115.3 206 116C240.3 116.7 274.7 115.3 308.8 109.3C343 103.3 377 92.7 411.2 92.5C445.3 92.3 479.7 102.7 514 107.3C548.3 112 582.7 111 617 108.7C651.3 106.3 685.7 102.7 720 102.2C754.3 101.7 788.7 104.3 823 102.3C857.3 100.3 891.7 93.7 926 97.7C960.3 101.7 994.7 116.3 1028.8 123.2C1063 130 1097 129 1131.2 127.3C1165.3 125.7 1199.7 123.3 1234 120C1268.3 116.7 1302.7 112.3 1337 111.7C1371.3 111 1405.7 114 1422.8 115.5L1440 117L1440 0L1422.8 0C1405.7 0 1371.3 0 1337 0C1302.7 0 1268.3 0 1234 0C1199.7 0 1165.3 0 1131.2 0C1097 0 1063 0 1028.8 0C994.7 0 960.3 0 926 0C891.7 0 857.3 0 823 0C788.7 0 754.3 0 720 0C685.7 0 651.3 0 617 0C582.7 0 548.3 0 514 0C479.7 0 445.3 0 411.2 0C377 0 343 0 308.8 0C274.7 0 240.3 0 206 0C171.7 0 137.3 0 103 0C68.7 0 34.3 0 17.2 0L0 0Z" fill="#f0ddd8"></path><path d="M0 105L17.2 103C34.3 101 68.7 97 103 95.3C137.3 93.7 171.7 94.3 206 94.8C240.3 95.3 274.7 95.7 308.8 93.8C343 92 377 88 411.2 83.3C445.3 78.7 479.7 73.3 514 71.7C548.3 70 582.7 72 617 75.3C651.3 78.7 685.7 83.3 720 87.7C754.3 92 788.7 96 823 99.2C857.3 102.3 891.7 104.7 926 106C960.3 107.3 994.7 107.7 1028.8 106C1063 104.3 1097 100.7 1131.2 94.7C1165.3 88.7 1199.7 80.3 1234 78.2C1268.3 76 1302.7 80 1337 81.3C1371.3 82.7 1405.7 81.3 1422.8 80.7L1440 80L1440 0L1422.8 0C1405.7 0 1371.3 0 1337 0C1302.7 0 1268.3 0 1234 0C1199.7 0 1165.3 0 1131.2 0C1097 0 1063 0 1028.8 0C994.7 0 960.3 0 926 0C891.7 0 857.3 0 823 0C788.7 0 754.3 0 720 0C685.7 0 651.3 0 617 0C582.7 0 548.3 0 514 0C479.7 0 445.3 0 411.2 0C377 0 343 0 308.8 0C274.7 0 240.3 0 206 0C171.7 0 137.3 0 103 0C68.7 0 34.3 0 17.2 0L0 0Z" fill="#fbbdac"></path><path d="M0 57L17.2 55.7C34.3 54.3 68.7 51.7 103 56.3C137.3 61 171.7 73 206 76.5C240.3 80 274.7 75 308.8 69.5C343 64 377 58 411.2 59.8C445.3 61.7 479.7 71.3 514 71.3C548.3 71.3 582.7 61.7 617 60.3C651.3 59 685.7 66 720 67.7C754.3 69.3 788.7 65.7 823 65.3C857.3 65 891.7 68 926 67.8C960.3 67.7 994.7 64.3 1028.8 63.2C1063 62 1097 63 1131.2 64.2C1165.3 65.3 1199.7 66.7 1234 68.7C1268.3 70.7 1302.7 73.3 1337 72C1371.3 70.7 1405.7 65.3 1422.8 62.7L1440 60L1440 0L1422.8 0C1405.7 0 1371.3 0 1337 0C1302.7 0 1268.3 0 1234 0C1199.7 0 1165.3 0 1131.2 0C1097 0 1063 0 1028.8 0C994.7 0 960.3 0 926 0C891.7 0 857.3 0 823 0C788.7 0 754.3 0 720 0C685.7 0 651.3 0 617 0C582.7 0 548.3 0 514 0C479.7 0 445.3 0 411.2 0C377 0 343 0 308.8 0C274.7 0 240.3 0 206 0C171.7 0 137.3 0 103 0C68.7 0 34.3 0 17.2 0L0 0Z" fill="#ff9c82"></path><path d="M0 61L17.2 58.7C34.3 56.3 68.7 51.7 103 48.8C137.3 46 171.7 45 206 45.5C240.3 46 274.7 48 308.8 50.8C343 53.7 377 57.3 411.2 57.8C445.3 58.3 479.7 55.7 514 52C548.3 48.3 582.7 43.7 617 44.2C651.3 44.7 685.7 50.3 720 53.2C754.3 56 788.7 56 823 52.3C857.3 48.7 891.7 41.3 926 38.3C960.3 35.3 994.7 36.7 1028.8 39.7C1063 42.7 1097 47.3 1131.2 49.7C1165.3 52 1199.7 52 1234 52.2C1268.3 52.3 1302.7 52.7 1337 50.7C1371.3 48.7 1405.7 44.3 1422.8 42.2L1440 40L1440 0L1422.8 0C1405.7 0 1371.3 0 1337 0C1302.7 0 1268.3 0 1234 0C1199.7 0 1165.3 0 1131.2 0C1097 0 1063 0 1028.8 0C994.7 0 960.3 0 926 0C891.7 0 857.3 0 823 0C788.7 0 754.3 0 720 0C685.7 0 651.3 0 617 0C582.7 0 548.3 0 514 0C479.7 0 445.3 0 411.2 0C377 0 343 0 308.8 0C274.7 0 240.3 0 206 0C171.7 0 137.3 0 103 0C68.7 0 34.3 0 17.2 0L0 0Z" fill="#ff7a58"></path><path d="M0 30L17.2 29.8C34.3 29.7 68.7 29.3 103 30.2C137.3 31 171.7 33 206 34.2C240.3 35.3 274.7 35.7 308.8 33C343 30.3 377 24.7 411.2 23C445.3 21.3 479.7 23.7 514 24.2C548.3 24.7 582.7 23.3 617 25.3C651.3 27.3 685.7 32.7 720 32.3C754.3 32 788.7 26 823 24.7C857.3 23.3 891.7 26.7 926 25.5C960.3 24.3 994.7 18.7 1028.8 17.8C1063 17 1097 21 1131.2 24.3C1165.3 27.7 1199.7 30.3 1234 31.8C1268.3 33.3 1302.7 33.7 1337 34.8C1371.3 36 1405.7 38 1422.8 39L1440 40L1440 0L1422.8 0C1405.7 0 1371.3 0 1337 0C1302.7 0 1268.3 0 1234 0C1199.7 0 1165.3 0 1131.2 0C1097 0 1063 0 1028.8 0C994.7 0 960.3 0 926 0C891.7 0 857.3 0 823 0C788.7 0 754.3 0 720 0C685.7 0 651.3 0 617 0C582.7 0 548.3 0 514 0C479.7 0 445.3 0 411.2 0C377 0 343 0 308.8 0C274.7 0 240.3 0 206 0C171.7 0 137.3 0 103 0C68.7 0 34.3 0 17.2 0L0 0Z" fill="#ff512f"></path></svg>