<svg id="visual" viewBox="0 0 1440 600" preserveAspectRatio='xMidYMid meet' xmlns="http://www.w3.org/2000/svg" xmlns:xlink="http://www.w3.org/1999/xlink" version="1.1"><path d="M0 395L10.5 384.5C21 374 42 353 62.8 342.7C83.7 332.3 104.3 332.7 125.2 335.8C146 339 167 345 187.8 356.5C208.7 368 229.3 385 250.2 389.8C271 394.7 292 387.3 313 388.8C334 390.3 355 400.7 375.8 397.5C396.7 394.3 417.3 377.7 438.2 374.7C459 371.7 480 382.3 500.8 389.5C521.7 396.7 542.3 400.3 563.2 391.8C584 383.3 605 362.7 626 360.7C647 358.7 668 375.3 688.8 381.2C709.7 387 730.3 382 751.2 379.5C772 377 793 377 814 376C835 375 856 373 876.8 368.2C897.7 363.3 918.3 355.7 939.2 350.3C960 345 981 342 1001.8 348.8C1022.7 355.7 1043.3 372.3 1064.2 381C1085 389.7 1106 390.3 1127 389.3C1148 388.3 1169 385.7 1189.8 377.3C1210.7 369 1231.3 355 1252.2 357.8C1273 360.7 1294 380.3 1314.8 390.3C1335.7 400.3 1356.3 400.7 1377.2 392.7C1398 384.7 1419 368.3 1429.5 360.2L1440 352L1440 601L1429.5 601C1419 601 1398 601 1377.2 601C1356.3 601 1335.7 601 1314.8 601C1294 601 1273 601 1252.2 601C1231.3 601 1210.7 601 1189.8 601C1169 601 1148 601 1127 601C1106 601 1085 601 1064.2 601C1043.3 601 1022.7 601 1001.8 601C981 601 960 601 939.2 601C918.3 601 897.7 601 876.8 601C856 601 835 601 814 601C793 601 772 601 751.2 601C730.3 601 709.7 601 688.8 601C668 601 647 601 626 601C605 601 584 601 563.2 601C542.3 601 521.7 601 500.8 601C480 601 459 601 438.2 601C417.3 601 396.7 601 375.8 601C355 601 334 601 313 601C292 601 271 601 250.2 601C229.3 601 208.7 601 187.8 601C167 601 146 601 125.2 601C104.3 601 83.7 601 62.8 601C42 601 21 601 10.5 601L0 601Z" fill="#ff512f"></path><path d="M0 395L10.5 388C21 381 42 367 62.8 370.2C83.7 373.3 104.3 393.7 125.2 399.2C146 404.7 167 395.3 187.8 390.2C208.7 385 229.3 384 250.2 378.7C271 373.3 292 363.7 313 370.5C334 377.3 355 400.7 375.8 409.3C396.7 418 417.3 412 438.2 402.2C459 392.3 480 378.7 500.8 377.5C521.7 376.3 542.3 387.7 563.2 398.5C584 409.3 605 419.7 626 420.7C647 421.7 668 413.3 688.8 410.2C709.7 407 730.3 409 751.2 408.3C772 407.7 793 404.3 814 394.7C835 385 856 369 876.8 367.5C897.7 366 918.3 379 939.2 391C960 403 981 414 1001.8 409.8C1022.7 405.7 1043.3 386.3 1064.2 382.3C1085 378.3 1106 389.7 1127 387.8C1148 386 1169 371 1189.8 372.8C1210.7 374.7 1231.3 393.3 1252.2 393.3C1273 393.3 1294 374.7 1314.8 366.2C1335.7 357.7 1356.3 359.3 1377.2 360.5C1398 361.7 1419 362.3 1429.5 362.7L1440 363L1440 601L1429.5 601C1419 601 1398 601 1377.2 601C1356.3 601 1335.7 601 1314.8 601C1294 601 1273 601 1252.2 601C1231.3 601 1210.7 601 1189.8 601C1169 601 1148 601 1127 601C1106 601 1085 601 1064.2 601C1043.3 601 1022.7 601 1001.8 601C981 601 960 601 939.2 601C918.3 601 897.7 601 876.8 601C856 601 835 601 814 601C793 601 772 601 751.2 601C730.3 601 709.7 601 688.8 601C668 601 647 601 626 601C605 601 584 601 563.2 601C542.3 601 521.7 601 500.8 601C480 601 459 601 438.2 601C417.3 601 396.7 601 375.8 601C355 601 334 601 313 601C292 601 271 601 250.2 601C229.3 601 208.7 601 187.8 601C167 601 146 601 125.2 601C104.3 601 83.7 601 62.8 601C42 601 21 601 10.5 601L0 601Z" fill="#ff7a58"></path><path d="M0 404L10.5 407.2C21 410.3 42 416.7 62.8 414.8C83.7 413 104.3 403 125.2 398.3C146 393.7 167 394.3 187.8 398.2C208.7 402 229.3 409 250.2 417.5C271 426 292 436 313 430.8C334 425.7 355 405.3 375.8 404.3C396.7 403.3 417.3 421.7 438.2 426C459 430.3 480 420.7 500.8 417.5C521.7 414.3 542.3 417.7 563.2 423.8C584 430 605 439 626 438.5C647 438 668 428 688.8 418.2C709.7 408.3 730.3 398.7 751.2 395C772 391.3 793 393.7 814 397C835 400.3 856 404.7 876.8 401C897.7 397.3 918.3 385.7 939.2 381.5C960 377.3 981 380.7 1001.8 381.7C1022.7 382.7 1043.3 381.3 1064.2 391C1085 400.7 1106 421.3 1127 425.5C1148 429.7 1169 417.3 1189.8 408.3C1210.7 399.3 1231.3 393.7 1252.2 395.3C1273 397 1294 406 1314.8 406.2C1335.7 406.3 1356.3 397.7 1377.2 398.2C1398 398.7 1419 408.3 1429.5 413.2L1440 418L1440 601L1429.5 601C1419 601 1398 601 1377.2 601C1356.3 601 1335.7 601 1314.8 601C1294 601 1273 601 1252.2 601C1231.3 601 1210.7 601 1189.8 601C1169 601 1148 601 1127 601C1106 601 1085 601 1064.2 601C1043.3 601 1022.7 601 1001.8 601C981 601 960 601 939.2 601C918.3 601 897.7 601 876.8 601C856 601 835 601 814 601C793 601 772 601 751.2 601C730.3 601 709.7 601 688.8 601C668 601 647 601 626 601C605 601 584 601 563.2 601C542.3 601 521.7 601 500.8 601C480 601 459 601 438.2 601C417.3 601 396.7 601 375.8 601C355 601 334 601 313 601C292 601 271 601 250.2 601C229.3 601 208.7 601 187.8 601C167 601 146 601 125.2 601C104.3 601 83.7 601 62.8 601C42 601 21 601 10.5 601L0 601Z" fill="#ff9c82"></path><path d="M0 425L10.5 431.2C21 437.3 42 449.7 62.8 446C83.7 442.3 104.3 422.7 125.2 414.8C146 407 167 411 187.8 411.5C208.7 412 229.3 409 250.2 411.5C271 414 292 422 313 431.3C334 440.7 355 451.3 375.8 447.5C396.7 443.7 417.3 425.3 438.2 423.2C459 421 480 435 500.8 442.8C521.7 450.7 542.3 452.3 563.2 445.3C584 438.3 605 422.7 626 417.8C647 413 668 419 688.8 423.7C709.7 428.3 730.3 431.7 751.2 437.7C772 443.7 793 452.3 814 455.8C835 459.3 856 457.7 876.8 456C897.7 454.3 918.3 452.7 939.2 446.5C960 440.3 981 429.7 1001.8 424.5C1022.7 419.3 1043.3 419.7 1064.2 420.7C1085 421.7 1106 423.3 1127 420.5C1148 417.7 1169 410.3 1189.8 412.8C1210.7 415.3 1231.3 427.7 1252.2 428.7C1273 429.7 1294 419.3 1314.8 422.7C1335.7 426 1356.3 443 1377.2 446.2C1398 449.3 1419 438.7 1429.5 433.3L1440 428L1440 601L1429.5 601C1419 601 1398 601 1377.2 601C1356.3 601 1335.7 601 1314.8 601C1294 601 1273 601 1252.2 601C1231.3 601 1210.7 601 1189.8 601C1169 601 1148 601 1127 601C1106 601 1085 601 1064.2 601C1043.3 601 1022.7 601 1001.8 601C981 601 960 601 939.2 601C918.3 601 897.7 601 876.8 601C856 601 835 601 814 601C793 601 772 601 751.2 601C730.3 601 709.7 601 688.8 601C668 601 647 601 626 601C605 601 584 601 563.2 601C542.3 601 521.7 601 500.8 601C480 601 459 601 438.2 601C417.3 601 396.7 601 375.8 601C355 601 334 601 313 601C292 601 271 601 250.2 601C229.3 601 208.7 601 187.8 601C167 601 146 601 125.2 601C104.3 601 83.7 601 62.8 601C42 601 21 601 10.5 601L0 601Z" fill="#fbbdac"></path><path d="M0 446L10.5 443C21 440 42 434 62.8 435.5C83.7 437 104.3 446 125.2 450.5C146 455 167 455 187.8 452C208.7 449 229.3 443 250.2 440.7C271 438.3 292 439.7 313 436C334 432.3 355 423.7 375.8 429.7C396.7 435.7 417.3 456.3 438.2 457.7C459 459 480 441 500.8 439.8C521.7 438.7 542.3 454.3 563.2 463.2C584 472 605 474 626 474.3C647 474.7 668 473.3 688.8 464.8C709.7 456.3 730.3 440.7 751.2 434.5C772 428.3 793 431.7 814 438.2C835 444.7 856 454.3 876.8 461.2C897.7 468 918.3 472 939.2 470C960 468 981 460 1001.8 458.8C1022.7 457.7 1043.3 463.3 1064.2 464C1085 464.7 1106 460.3 1127 458.8C1148 457.3 1169 458.7 1189.8 453.3C1210.7 448 1231.3 436 1252.2 437.2C1273 438.3 1294 452.7 1314.8 457.5C1335.7 462.3 1356.3 457.7 1377.2 459C1398 460.3 1419 467.7 1429.5 471.3L1440 475L1440 601L1429.5 601C1419 601 1398 601 1377.2 601C1356.3 601 1335.7 601 1314.8 601C1294 601 1273 601 1252.2 601C1231.3 601 1210.7 601 1189.8 601C1169 601 1148 601 1127 601C1106 601 1085 601 1064.2 601C1043.3 601 1022.7 601 1001.8 601C981 601 960 601 939.2 601C918.3 601 897.7 601 876.8 601C856 601 835 601 814 601C793 601 772 601 751.2 601C730.3 601 709.7 601 688.8 601C668 601 647 601 626 601C605 601 584 601 563.2 601C542.3 601 521.7 601 500.8 601C480 601 459 601 438.2 601C417.3 601 396.7 601 375.8 601C355 601 334 601 313 601C292 601 271 601 250.2 601C229.3 601 208.7 601 187.8 601C167 601 146 601 125.2 601C104.3 601 83.7 601 62.8 601C42 601 21 601 10.5 601L0 601Z" fill="#f0ddd8"></path><path d="M0 457L10.5 462C21 467 42 477 62.8 478.8C83.7 480.7 104.3 474.3 125.2 470.8C146 467.3 167 466.7 187.8 463.8C208.7 461 229.3 456 250.2 460.5C271 465 292 479 313 479C334 479 355 465 375.8 460.8C396.7 456.7 417.3 462.3 438.2 469.3C459 476.3 480 484.7 500.8 489.2C521.7 493.7 542.3 494.3 563.2 486.2C584 478 605 461 626 454.2C647 447.3 668 450.7 688.8 456.5C709.7 462.3 730.3 470.7 751.2 469.5C772 468.3 793 457.7 814 457.8C835 458 856 469 876.8 476C897.7 483 918.3 486 939.2 480C960 474 981 459 1001.8 450.7C1022.7 442.3 1043.3 440.7 1064.2 444.2C1085 447.7 1106 456.3 1127 459.5C1148 462.7 1169 460.3 1189.8 461C1210.7 461.7 1231.3 465.3 1252.2 466.3C1273 467.3 1294 465.7 1314.8 466.3C1335.7 467 1356.3 470 1377.2 471.5C1398 473 1419 473 1429.5 473L1440 473L1440 601L1429.5 601C1419 601 1398 601 1377.2 601C1356.3 601 1335.7 601 1314.8 601C1294 601 1273 601 1252.2 601C1231.3 601 1210.7 601 1189.8 601C1169 601 1148 601 1127 601C1106 601 1085 601 1064.2 601C1043.3 601 1022.7 601 1001.8 601C981 601 960 601 939.2 601C918.3 601 897.7 601 876.8 601C856 601 835 601 814 601C793 601 772 601 751.2 601C730.3 601 709.7 601 688.8 601C668 601 647 601 626 601C605 601 584 601 563.2 601C542.3 601 521.7 601 500.8 601C480 601 459 601 438.2 601C417.3 601 396.7 601 375.8 601C355 601 334 601 313 601C292 601 271 601 250.2 601C229.3 601 208.7 601 187.8 601C167 601 146 601 125.2 601C104.3 601 83.7 601 62.8 601C42 601 21 601 10.5 601L0 601Z" fill="#eaeaea"></path><path d="M0 501L10.5 501.5C21 502 42 503 62.8 504C83.7 505 104.3 506 125.2 504.5C146 503 167 499 187.8 493.8C208.7 488.7 229.3 482.3 250.2 483.8C271 485.3 292 494.7 313 493.2C334 491.7 355 479.3 375.8 474C396.7 468.7 417.3 470.3 438.2 474.7C459 479 480 486 500.8 486.8C521.7 487.7 542.3 482.3 563.2 478.5C584 474.7 605 472.3 626 470.8C647 469.3 668 468.7 688.8 473C709.7 477.3 730.3 486.7 751.2 492C772 497.3 793 498.7 814 501.2C835 503.7 856 507.3 876.8 504.3C897.7 501.3 918.3 491.7 939.2 490.2C960 488.7 981 495.3 1001.8 495.5C1022.7 495.7 1043.3 489.3 1064.2 489.8C1085 490.3 1106 497.7 1127 498.5C1148 499.3 1169 493.7 1189.8 488.8C1210.7 484 1231.3 480 1252.2 479.8C1273 479.7 1294 483.3 1314.8 484.8C1335.7 486.3 1356.3 485.7 1377.2 483.7C1398 481.7 1419 478.3 1429.5 476.7L1440 475L1440 601L1429.5 601C1419 601 1398 601 1377.2 601C1356.3 601 1335.7 601 1314.8 601C1294 601 1273 601 1252.2 601C1231.3 601 1210.7 601 1189.8 601C1169 601 1148 601 1127 601C1106 601 1085 601 1064.2 601C1043.3 601 1022.7 601 1001.8 601C981 601 960 601 939.2 601C918.3 601 897.7 601 876.8 601C856 601 835 601 814 601C793 601 772 601 751.2 601C730.3 601 709.7 601 688.8 601C668 601 647 601 626 601C605 601 584 601 563.2 601C542.3 601 521.7 601 500.8 601C480 601 459 601 438.2 601C417.3 601 396.7 601 375.8 601C355 601 334 601 313 601C292 601 271 601 250.2 601C229.3 601 208.7 601 187.8 601C167 601 146 601 125.2 601C104.3 601 83.7 601 62.8 601C42 601 21 601 10.5 601L0 601Z" fill="#eaeaea"></path><path d="M0 504L10.5 506C21 508 42 512 62.8 514.8C83.7 517.7 104.3 519.3 125.2 517.5C146 515.7 167 510.3 187.8 511.2C208.7 512 229.3 519 250.2 515.8C271 512.7 292 499.3 313 499C334 498.7 355 511.3 375.8 510C396.7 508.7 417.3 493.3 438.2 488.3C459 483.3 480 488.7 500.8 491.8C521.7 495 542.3 496 563.2 494.8C584 493.7 605 490.3 626 493C647 495.7 668 504.3 688.8 506.8C709.7 509.3 730.3 505.7 751.2 502C772 498.3 793 494.7 814 494.7C835 494.7 856 498.3 876.8 497C897.7 495.7 918.3 489.3 939.2 492C960 494.7 981 506.3 1001.8 512.3C1022.7 518.3 1043.3 518.7 1064.2 515.7C1085 512.7 1106 506.3 1127 502.2C1148 498 1169 496 1189.8 499.3C1210.7 502.7 1231.3 511.3 1252.2 515.2C1273 519 1294 518 1314.8 513.8C1335.7 509.7 1356.3 502.3 1377.2 496.7C1398 491 1419 487 1429.5 485L1440 483L1440 601L1429.5 601C1419 601 1398 601 1377.2 601C1356.3 601 1335.7 601 1314.8 601C1294 601 1273 601 1252.2 601C1231.3 601 1210.7 601 1189.8 601C1169 601 1148 601 1127 601C1106 601 1085 601 1064.2 601C1043.3 601 1022.7 601 1001.8 601C981 601 960 601 939.2 601C918.3 601 897.7 601 876.8 601C856 601 835 601 814 601C793 601 772 601 751.2 601C730.3 601 709.7 601 688.8 601C668 601 647 601 626 601C605 601 584 601 563.2 601C542.3 601 521.7 601 500.8 601C480 601 459 601 438.2 601C417.3 601 396.7 601 375.8 601C355 601 334 601 313 601C292 601 271 601 250.2 601C229.3 601 208.7 601 187.8 601C167 601 146 601 125.2 601C104.3 601 83.7 601 62.8 601C42 601 21 601 10.5 601L0 601Z" fill="#f0ddd8"></path><path d="M0 534L10.5 528.3C21 522.7 42 511.3 62.8 511.7C83.7 512 104.3 524 125.2 531C146 538 167 540 187.8 539.8C208.7 539.7 229.3 537.3 250.2 533.7C271 530 292 525 313 523C334 521 355 522 375.8 519C396.7 516 417.3 509 438.2 505.7C459 502.3 480 502.7 500.8 509.3C521.7 516 542.3 529 563.2 533.3C584 537.7 605 533.3 626 533.2C647 533 668 537 688.8 534.3C709.7 531.7 730.3 522.3 751.2 520.7C772 519 793 525 814 527.2C835 529.3 856 527.7 876.8 524C897.7 520.3 918.3 514.7 939.2 513.7C960 512.7 981 516.3 1001.8 519.2C1022.7 522 1043.3 524 1064.2 525.5C1085 527 1106 528 1127 525.3C1148 522.7 1169 516.3 1189.8 513.5C1210.7 510.7 1231.3 511.3 1252.2 514.8C1273 518.3 1294 524.7 1314.8 528.7C1335.7 532.7 1356.3 534.3 1377.2 530.2C1398 526 1419 516 1429.5 511L1440 506L1440 601L1429.5 601C1419 601 1398 601 1377.2 601C1356.3 601 1335.7 601 1314.8 601C1294 601 1273 601 1252.2 601C1231.3 601 1210.7 601 1189.8 601C1169 601 1148 601 1127 601C1106 601 1085 601 1064.2 601C1043.3 601 1022.7 601 1001.8 601C981 601 960 601 939.2 601C918.3 601 897.7 601 876.8 601C856 601 835 601 814 601C793 601 772 601 751.2 601C730.3 601 709.7 601 688.8 601C668 601 647 601 626 601C605 601 584 601 563.2 601C542.3 601 521.7 601 500.8 601C480 601 459 601 438.2 601C417.3 601 396.7 601 375.8 601C355 601 334 601 313 601C292 601 271 601 250.2 601C229.3 601 208.7 601 187.8 601C167 601 146 601 125.2 601C104.3 601 83.7 601 62.8 601C42 601 21 601 10.5 601L0 601Z" fill="#fbbdac"></path><path d="M0 550L10.5 548.8C21 547.7 42 545.3 62.8 546.3C83.7 547.3 104.3 551.7 125.2 552C146 552.3 167 548.7 187.8 548.5C208.7 548.3 229.3 551.7 250.2 553.8C271 556 292 557 313 556.5C334 556 355 554 375.8 549C396.7 544 417.3 536 438.2 534C459 532 480 536 500.8 539.3C521.7 542.7 542.3 545.3 563.2 543.3C584 541.3 605 534.7 626 534.8C647 535 668 542 688.8 546.8C709.7 551.7 730.3 554.3 751.2 551.2C772 548 793 539 814 539.2C835 539.3 856 548.7 876.8 550C897.7 551.3 918.3 544.7 939.2 541.3C960 538 981 538 1001.8 540.7C1022.7 543.3 1043.3 548.7 1064.2 548.3C1085 548 1106 542 1127 540.3C1148 538.7 1169 541.3 1189.8 544.8C1210.7 548.3 1231.3 552.7 1252.2 554C1273 555.3 1294 553.7 1314.8 549C1335.7 544.3 1356.3 536.7 1377.2 537C1398 537.3 1419 545.7 1429.5 549.8L1440 554L1440 601L1429.5 601C1419 601 1398 601 1377.2 601C1356.3 601 1335.7 601 1314.8 601C1294 601 1273 601 1252.2 601C1231.3 601 1210.7 601 1189.8 601C1169 601 1148 601 1127 601C1106 601 1085 601 1064.2 601C1043.3 601 1022.7 601 1001.8 601C981 601 960 601 939.2 601C918.3 601 897.7 601 876.8 601C856 601 835 601 814 601C793 601 772 601 751.2 601C730.3 601 709.7 601 688.8 601C668 601 647 601 626 601C605 601 584 601 563.2 601C542.3 601 521.7 601 500.8 601C480 601 459 601 438.2 601C417.3 601 396.7 601 375.8 601C355 601 334 601 313 601C292 601 271 601 250.2 601C229.3 601 208.7 601 187.8 601C167 601 146 601 125.2 601C104.3 601 83.7 601 62.8 601C42 601 21 601 10.5 601L0 601Z" fill="#ff9c82"></path><path d="M0 565L10.5 561.3C21 557.7 42 550.3 62.8 549.8C83.7 549.3 104.3 555.7 125.2 558.3C146 561 167 560 187.8 558.5C208.7 557 229.3 555 250.2 553.7C271 552.3 292 551.7 313 551.5C334 551.3 355 551.7 375.8 552.5C396.7 553.3 417.3 554.7 438.2 552.8C459 551 480 546 500.8 547C521.7 548 542.3 555 563.2 558.2C584 561.3 605 560.7 626 557.3C647 554 668 548 688.8 546C709.7 544 730.3 546 751.2 548C772 550 793 552 814 553.8C835 555.7 856 557.3 876.8 559.2C897.7 561 918.3 563 939.2 564.3C960 565.7 981 566.3 1001.8 562.7C1022.7 559 1043.3 551 1064.2 551.8C1085 552.7 1106 562.3 1127 565.2C1148 568 1169 564 1189.8 563.3C1210.7 562.7 1231.3 565.3 1252.2 566.3C1273 567.3 1294 566.7 1314.8 564.8C1335.7 563 1356.3 560 1377.2 558.8C1398 557.7 1419 558.3 1429.5 558.7L1440 559L1440 601L1429.5 601C1419 601 1398 601 1377.2 601C1356.3 601 1335.7 601 1314.8 601C1294 601 1273 601 1252.2 601C1231.3 601 1210.7 601 1189.8 601C1169 601 1148 601 1127 601C1106 601 1085 601 1064.2 601C1043.3 601 1022.7 601 1001.8 601C981 601 960 601 939.2 601C918.3 601 897.7 601 876.8 601C856 601 835 601 814 601C793 601 772 601 751.2 601C730.3 601 709.7 601 688.8 601C668 601 647 601 626 601C605 601 584 601 563.2 601C542.3 601 521.7 601 500.8 601C480 601 459 601 438.2 601C417.3 601 396.7 601 375.8 601C355 601 334 601 313 601C292 601 271 601 250.2 601C229.3 601 208.7 601 187.8 601C167 601 146 601 125.2 601C104.3 601 83.7 601 62.8 601C42 601 21 601 10.5 601L0 601Z" fill="#ff7a58"></path><path d="M0 567L10.5 569.3C21 571.7 42 576.3 62.8 578.3C83.7 580.3 104.3 579.7 125.2 579.3C146 579 167 579 187.8 577C208.7 575 229.3 571 250.2 571.3C271 571.7 292 576.3 313 576.5C334 576.7 355 572.3 375.8 572.2C396.7 572 417.3 576 438.2 577.5C459 579 480 578 500.8 579.3C521.7 580.7 542.3 584.3 563.2 583.2C584 582 605 576 626 575C647 574 668 578 688.8 578.7C709.7 579.3 730.3 576.7 751.2 573.7C772 570.7 793 567.3 814 567.2C835 567 856 570 876.8 570.5C897.7 571 918.3 569 939.2 567.8C960 566.7 981 566.3 1001.8 569C1022.7 571.7 1043.3 577.3 1064.2 580C1085 582.7 1106 582.3 1127 581.2C1148 580 1169 578 1189.8 575.2C1210.7 572.3 1231.3 568.7 1252.2 568.5C1273 568.3 1294 571.7 1314.8 574C1335.7 576.3 1356.3 577.7 1377.2 579.2C1398 580.7 1419 582.3 1429.5 583.2L1440 584L1440 601L1429.5 601C1419 601 1398 601 1377.2 601C1356.3 601 1335.7 601 1314.8 601C1294 601 1273 601 1252.2 601C1231.3 601 1210.7 601 1189.8 601C1169 601 1148 601 1127 601C1106 601 1085 601 1064.2 601C1043.3 601 1022.7 601 1001.8 601C981 601 960 601 939.2 601C918.3 601 897.7 601 876.8 601C856 601 835 601 814 601C793 601 772 601 751.2 601C730.3 601 709.7 601 688.8 601C668 601 647 601 626 601C605 601 584 601 563.2 601C542.3 601 521.7 601 500.8 601C480 601 459 601 438.2 601C417.3 601 396.7 601 375.8 601C355 601 334 601 313 601C292 601 271 601 250.2 601C229.3 601 208.7 601 187.8 601C167 601 146 601 125.2 601C104.3 601 83.7 601 62.8 601C42 601 21 601 10.5 601L0 601Z" fill="#ff512f"></path></svg>