<svg id="visual" viewBox="0 0 960 540" width="960" height="540" xmlns="http://www.w3.org/2000/svg" xmlns:xlink="http://www.w3.org/1999/xlink" version="1.1"><path d="M0 269L7 287C14 305 28 341 41.8 362.5C55.7 384 69.3 391 83.2 388.7C97 386.3 111 374.7 125 358C139 341.3 153 319.7 167 314C181 308.3 195 318.7 208.8 334.2C222.7 349.7 236.3 370.3 250.2 363.2C264 356 278 321 292 311.5C306 302 320 318 334 334.8C348 351.7 362 369.3 375.8 373.3C389.7 377.3 403.3 367.7 417.2 362.8C431 358 445 358 459 358C473 358 487 358 501 348C515 338 529 318 542.8 306.3C556.7 294.7 570.3 291.3 584.2 306.3C598 321.3 612 354.7 626 360.3C640 366 654 344 668 333.8C682 323.7 696 325.3 709.8 323.3C723.7 321.3 737.3 315.7 751.2 319.2C765 322.7 779 335.3 793 343C807 350.7 821 353.3 835 359C849 364.7 863 373.3 876.8 359.3C890.7 345.3 904.3 308.7 918.2 308.3C932 308 946 344 953 362L960 380L960 541L953 541C946 541 932 541 918.2 541C904.3 541 890.7 541 876.8 541C863 541 849 541 835 541C821 541 807 541 793 541C779 541 765 541 751.2 541C737.3 541 723.7 541 709.8 541C696 541 682 541 668 541C654 541 640 541 626 541C612 541 598 541 584.2 541C570.3 541 556.7 541 542.8 541C529 541 515 541 501 541C487 541 473 541 459 541C445 541 431 541 417.2 541C403.3 541 389.7 541 375.8 541C362 541 348 541 334 541C320 541 306 541 292 541C278 541 264 541 250.2 541C236.3 541 222.7 541 208.8 541C195 541 181 541 167 541C153 541 139 541 125 541C111 541 97 541 83.2 541C69.3 541 55.7 541 41.8 541C28 541 14 541 7 541L0 541Z" fill="#eaeaea"></path><path d="M0 351L7 343.3C14 335.7 28 320.3 41.8 319.8C55.7 319.3 69.3 333.7 83.2 332.2C97 330.7 111 313.3 125 314.5C139 315.7 153 335.3 167 343.5C181 351.7 195 348.3 208.8 339C222.7 329.7 236.3 314.3 250.2 322.2C264 330 278 361 292 369.2C306 377.3 320 362.7 334 354.8C348 347 362 346 375.8 353.5C389.7 361 403.3 377 417.2 370.5C431 364 445 335 459 324.8C473 314.7 487 323.3 501 330.2C515 337 529 342 542.8 338.2C556.7 334.3 570.3 321.7 584.2 330.8C598 340 612 371 626 381.3C640 391.7 654 381.3 668 380.5C682 379.7 696 388.3 709.8 380.3C723.7 372.3 737.3 347.7 751.2 330.7C765 313.7 779 304.3 793 307.7C807 311 821 327 835 327.5C849 328 863 313 876.8 320C890.7 327 904.3 356 918.2 371C932 386 946 387 953 387.5L960 388L960 541L953 541C946 541 932 541 918.2 541C904.3 541 890.7 541 876.8 541C863 541 849 541 835 541C821 541 807 541 793 541C779 541 765 541 751.2 541C737.3 541 723.7 541 709.8 541C696 541 682 541 668 541C654 541 640 541 626 541C612 541 598 541 584.2 541C570.3 541 556.7 541 542.8 541C529 541 515 541 501 541C487 541 473 541 459 541C445 541 431 541 417.2 541C403.3 541 389.7 541 375.8 541C362 541 348 541 334 541C320 541 306 541 292 541C278 541 264 541 250.2 541C236.3 541 222.7 541 208.8 541C195 541 181 541 167 541C153 541 139 541 125 541C111 541 97 541 83.2 541C69.3 541 55.7 541 41.8 541C28 541 14 541 7 541L0 541Z" fill="#f8cabe"></path><path d="M0 312L7 331C14 350 28 388 41.8 400.7C55.7 413.3 69.3 400.7 83.2 391.3C97 382 111 376 125 377C139 378 153 386 167 377C181 368 195 342 208.8 343.7C222.7 345.3 236.3 374.7 250.2 378.2C264 381.7 278 359.3 292 344.7C306 330 320 323 334 327.2C348 331.3 362 346.7 375.8 353.3C389.7 360 403.3 358 417.2 351.3C431 344.7 445 333.3 459 335.3C473 337.3 487 352.7 501 359.5C515 366.3 529 364.7 542.8 362.7C556.7 360.7 570.3 358.3 584.2 353.3C598 348.3 612 340.7 626 348.2C640 355.7 654 378.3 668 388.3C682 398.3 696 395.7 709.8 384C723.7 372.3 737.3 351.7 751.2 355.7C765 359.7 779 388.3 793 404C807 419.7 821 422.3 835 412.5C849 402.7 863 380.3 876.8 372C890.7 363.7 904.3 369.3 918.2 380.7C932 392 946 409 953 417.5L960 426L960 541L953 541C946 541 932 541 918.2 541C904.3 541 890.7 541 876.8 541C863 541 849 541 835 541C821 541 807 541 793 541C779 541 765 541 751.2 541C737.3 541 723.7 541 709.8 541C696 541 682 541 668 541C654 541 640 541 626 541C612 541 598 541 584.2 541C570.3 541 556.7 541 542.8 541C529 541 515 541 501 541C487 541 473 541 459 541C445 541 431 541 417.2 541C403.3 541 389.7 541 375.8 541C362 541 348 541 334 541C320 541 306 541 292 541C278 541 264 541 250.2 541C236.3 541 222.7 541 208.8 541C195 541 181 541 167 541C153 541 139 541 125 541C111 541 97 541 83.2 541C69.3 541 55.7 541 41.8 541C28 541 14 541 7 541L0 541Z" fill="#feaa92"></path><path d="M0 340L7 351.5C14 363 28 386 41.8 397.5C55.7 409 69.3 409 83.2 408.3C97 407.7 111 406.3 125 410.2C139 414 153 423 167 423.8C181 424.7 195 417.3 208.8 409C222.7 400.7 236.3 391.3 250.2 391.7C264 392 278 402 292 402.2C306 402.3 320 392.7 334 380.5C348 368.3 362 353.7 375.8 351.8C389.7 350 403.3 361 417.2 360.7C431 360.3 445 348.7 459 353.2C473 357.7 487 378.3 501 392C515 405.7 529 412.3 542.8 417.2C556.7 422 570.3 425 584.2 414.3C598 403.7 612 379.3 626 368C640 356.7 654 358.3 668 371C682 383.7 696 407.3 709.8 411C723.7 414.7 737.3 398.3 751.2 386.8C765 375.3 779 368.7 793 369.3C807 370 821 378 835 379.3C849 380.7 863 375.3 876.8 370.8C890.7 366.3 904.3 362.7 918.2 362.8C932 363 946 367 953 369L960 371L960 541L953 541C946 541 932 541 918.2 541C904.3 541 890.7 541 876.8 541C863 541 849 541 835 541C821 541 807 541 793 541C779 541 765 541 751.2 541C737.3 541 723.7 541 709.8 541C696 541 682 541 668 541C654 541 640 541 626 541C612 541 598 541 584.2 541C570.3 541 556.7 541 542.8 541C529 541 515 541 501 541C487 541 473 541 459 541C445 541 431 541 417.2 541C403.3 541 389.7 541 375.8 541C362 541 348 541 334 541C320 541 306 541 292 541C278 541 264 541 250.2 541C236.3 541 222.7 541 208.8 541C195 541 181 541 167 541C153 541 139 541 125 541C111 541 97 541 83.2 541C69.3 541 55.7 541 41.8 541C28 541 14 541 7 541L0 541Z" fill="#ff8869"></path><path d="M0 414L7 417.5C14 421 28 428 41.8 427.7C55.7 427.3 69.3 419.7 83.2 420.5C97 421.3 111 430.7 125 431.2C139 431.7 153 423.3 167 411.3C181 399.3 195 383.7 208.8 386.5C222.7 389.3 236.3 410.7 250.2 422C264 433.3 278 434.7 292 434C306 433.3 320 430.7 334 428C348 425.3 362 422.7 375.8 415.8C389.7 409 403.3 398 417.2 387.2C431 376.3 445 365.7 459 360.5C473 355.3 487 355.7 501 368C515 380.3 529 404.7 542.8 408.2C556.7 411.7 570.3 394.3 584.2 389.7C598 385 612 393 626 398C640 403 654 405 668 407.7C682 410.3 696 413.7 709.8 409.8C723.7 406 737.3 395 751.2 391.2C765 387.3 779 390.7 793 386.2C807 381.7 821 369.3 835 372.3C849 375.3 863 393.7 876.8 407.8C890.7 422 904.3 432 918.2 422.7C932 413.3 946 384.7 953 370.3L960 356L960 541L953 541C946 541 932 541 918.2 541C904.3 541 890.7 541 876.8 541C863 541 849 541 835 541C821 541 807 541 793 541C779 541 765 541 751.2 541C737.3 541 723.7 541 709.8 541C696 541 682 541 668 541C654 541 640 541 626 541C612 541 598 541 584.2 541C570.3 541 556.7 541 542.8 541C529 541 515 541 501 541C487 541 473 541 459 541C445 541 431 541 417.2 541C403.3 541 389.7 541 375.8 541C362 541 348 541 334 541C320 541 306 541 292 541C278 541 264 541 250.2 541C236.3 541 222.7 541 208.8 541C195 541 181 541 167 541C153 541 139 541 125 541C111 541 97 541 83.2 541C69.3 541 55.7 541 41.8 541C28 541 14 541 7 541L0 541Z" fill="#ff6240"></path><path d="M0 451L7 447.2C14 443.3 28 435.7 41.8 427.3C55.7 419 69.3 410 83.2 412.7C97 415.3 111 429.7 125 434.3C139 439 153 434 167 432.3C181 430.7 195 432.3 208.8 430.2C222.7 428 236.3 422 250.2 420.5C264 419 278 422 292 429.7C306 437.3 320 449.7 334 450C348 450.3 362 438.7 375.8 434.5C389.7 430.3 403.3 433.7 417.2 431.7C431 429.7 445 422.3 459 417.2C473 412 487 409 501 412.2C515 415.3 529 424.7 542.8 433.7C556.7 442.7 570.3 451.3 584.2 451.7C598 452 612 444 626 440.7C640 437.3 654 438.7 668 442.3C682 446 696 452 709.8 447.2C723.7 442.3 737.3 426.7 751.2 419C765 411.3 779 411.7 793 407.5C807 403.3 821 394.7 835 400.8C849 407 863 428 876.8 437.8C890.7 447.7 904.3 446.3 918.2 443.3C932 440.3 946 435.7 953 433.3L960 431L960 541L953 541C946 541 932 541 918.2 541C904.3 541 890.7 541 876.8 541C863 541 849 541 835 541C821 541 807 541 793 541C779 541 765 541 751.2 541C737.3 541 723.7 541 709.8 541C696 541 682 541 668 541C654 541 640 541 626 541C612 541 598 541 584.2 541C570.3 541 556.7 541 542.8 541C529 541 515 541 501 541C487 541 473 541 459 541C445 541 431 541 417.2 541C403.3 541 389.7 541 375.8 541C362 541 348 541 334 541C320 541 306 541 292 541C278 541 264 541 250.2 541C236.3 541 222.7 541 208.8 541C195 541 181 541 167 541C153 541 139 541 125 541C111 541 97 541 83.2 541C69.3 541 55.7 541 41.8 541C28 541 14 541 7 541L0 541Z" fill="#ff512f"></path><path d="M0 420L7 424.8C14 429.7 28 439.3 41.8 440.5C55.7 441.7 69.3 434.3 83.2 425.5C97 416.7 111 406.3 125 401C139 395.7 153 395.3 167 397.5C181 399.7 195 404.3 208.8 415.8C222.7 427.3 236.3 445.7 250.2 451.5C264 457.3 278 450.7 292 443.8C306 437 320 430 334 424C348 418 362 413 375.8 420.7C389.7 428.3 403.3 448.7 417.2 457C431 465.3 445 461.7 459 456.3C473 451 487 444 501 436.5C515 429 529 421 542.8 417.5C556.7 414 570.3 415 584.2 423.3C598 431.7 612 447.3 626 453.2C640 459 654 455 668 452C682 449 696 447 709.8 442.7C723.7 438.3 737.3 431.7 751.2 433.7C765 435.7 779 446.3 793 441.2C807 436 821 415 835 406.5C849 398 863 402 876.8 412.7C890.7 423.3 904.3 440.7 918.2 442.7C932 444.7 946 431.3 953 424.7L960 418L960 541L953 541C946 541 932 541 918.2 541C904.3 541 890.7 541 876.8 541C863 541 849 541 835 541C821 541 807 541 793 541C779 541 765 541 751.2 541C737.3 541 723.7 541 709.8 541C696 541 682 541 668 541C654 541 640 541 626 541C612 541 598 541 584.2 541C570.3 541 556.7 541 542.8 541C529 541 515 541 501 541C487 541 473 541 459 541C445 541 431 541 417.2 541C403.3 541 389.7 541 375.8 541C362 541 348 541 334 541C320 541 306 541 292 541C278 541 264 541 250.2 541C236.3 541 222.7 541 208.8 541C195 541 181 541 167 541C153 541 139 541 125 541C111 541 97 541 83.2 541C69.3 541 55.7 541 41.8 541C28 541 14 541 7 541L0 541Z" fill="#ff512f"></path><path d="M0 447L7 451.5C14 456 28 465 41.8 465.8C55.7 466.7 69.3 459.3 83.2 454C97 448.7 111 445.3 125 439C139 432.7 153 423.3 167 427C181 430.7 195 447.3 208.8 459.2C222.7 471 236.3 478 250.2 480.5C264 483 278 481 292 481.3C306 481.7 320 484.3 334 474.5C348 464.7 362 442.3 375.8 438.7C389.7 435 403.3 450 417.2 459.2C431 468.3 445 471.7 459 463.7C473 455.7 487 436.3 501 436.8C515 437.3 529 457.7 542.8 459.7C556.7 461.7 570.3 445.3 584.2 446.8C598 448.3 612 467.7 626 468.8C640 470 654 453 668 441.5C682 430 696 424 709.8 424C723.7 424 737.3 430 751.2 432.5C765 435 779 434 793 433.5C807 433 821 433 835 442.2C849 451.3 863 469.7 876.8 477.8C890.7 486 904.3 484 918.2 483C932 482 946 482 953 482L960 482L960 541L953 541C946 541 932 541 918.2 541C904.3 541 890.7 541 876.8 541C863 541 849 541 835 541C821 541 807 541 793 541C779 541 765 541 751.2 541C737.3 541 723.7 541 709.8 541C696 541 682 541 668 541C654 541 640 541 626 541C612 541 598 541 584.2 541C570.3 541 556.7 541 542.8 541C529 541 515 541 501 541C487 541 473 541 459 541C445 541 431 541 417.2 541C403.3 541 389.7 541 375.8 541C362 541 348 541 334 541C320 541 306 541 292 541C278 541 264 541 250.2 541C236.3 541 222.7 541 208.8 541C195 541 181 541 167 541C153 541 139 541 125 541C111 541 97 541 83.2 541C69.3 541 55.7 541 41.8 541C28 541 14 541 7 541L0 541Z" fill="#ff6240"></path><path d="M0 497L7 491.2C14 485.3 28 473.7 41.8 472.2C55.7 470.7 69.3 479.3 83.2 477.7C97 476 111 464 125 458.2C139 452.3 153 452.7 167 455C181 457.3 195 461.7 208.8 458.8C222.7 456 236.3 446 250.2 442.2C264 438.3 278 440.7 292 447.5C306 454.3 320 465.7 334 472.3C348 479 362 481 375.8 475.2C389.7 469.3 403.3 455.7 417.2 451.2C431 446.7 445 451.3 459 453.8C473 456.3 487 456.7 501 456.2C515 455.7 529 454.3 542.8 457.3C556.7 460.3 570.3 467.7 584.2 470.3C598 473 612 471 626 467.3C640 463.7 654 458.3 668 453.8C682 449.3 696 445.7 709.8 445.7C723.7 445.7 737.3 449.3 751.2 452.3C765 455.3 779 457.7 793 463.2C807 468.7 821 477.3 835 483.5C849 489.7 863 493.3 876.8 493.8C890.7 494.3 904.3 491.7 918.2 489.7C932 487.7 946 486.3 953 485.7L960 485L960 541L953 541C946 541 932 541 918.2 541C904.3 541 890.7 541 876.8 541C863 541 849 541 835 541C821 541 807 541 793 541C779 541 765 541 751.2 541C737.3 541 723.7 541 709.8 541C696 541 682 541 668 541C654 541 640 541 626 541C612 541 598 541 584.2 541C570.3 541 556.7 541 542.8 541C529 541 515 541 501 541C487 541 473 541 459 541C445 541 431 541 417.2 541C403.3 541 389.7 541 375.8 541C362 541 348 541 334 541C320 541 306 541 292 541C278 541 264 541 250.2 541C236.3 541 222.7 541 208.8 541C195 541 181 541 167 541C153 541 139 541 125 541C111 541 97 541 83.2 541C69.3 541 55.7 541 41.8 541C28 541 14 541 7 541L0 541Z" fill="#ff8869"></path><path d="M0 505L7 503.8C14 502.7 28 500.3 41.8 496.7C55.7 493 69.3 488 83.2 488.7C97 489.3 111 495.7 125 499C139 502.3 153 502.7 167 503.5C181 504.3 195 505.7 208.8 506.2C222.7 506.7 236.3 506.3 250.2 501.2C264 496 278 486 292 481C306 476 320 476 334 474.8C348 473.7 362 471.3 375.8 469.8C389.7 468.3 403.3 467.7 417.2 472C431 476.3 445 485.7 459 491.7C473 497.7 487 500.3 501 501.5C515 502.7 529 502.3 542.8 503C556.7 503.7 570.3 505.3 584.2 499.8C598 494.3 612 481.7 626 480.8C640 480 654 491 668 491C682 491 696 480 709.8 477.7C723.7 475.3 737.3 481.7 751.2 480C765 478.3 779 468.7 793 467.8C807 467 821 475 835 475C849 475 863 467 876.8 468.3C890.7 469.7 904.3 480.3 918.2 484.7C932 489 946 487 953 486L960 485L960 541L953 541C946 541 932 541 918.2 541C904.3 541 890.7 541 876.8 541C863 541 849 541 835 541C821 541 807 541 793 541C779 541 765 541 751.2 541C737.3 541 723.7 541 709.8 541C696 541 682 541 668 541C654 541 640 541 626 541C612 541 598 541 584.2 541C570.3 541 556.7 541 542.8 541C529 541 515 541 501 541C487 541 473 541 459 541C445 541 431 541 417.2 541C403.3 541 389.7 541 375.8 541C362 541 348 541 334 541C320 541 306 541 292 541C278 541 264 541 250.2 541C236.3 541 222.7 541 208.8 541C195 541 181 541 167 541C153 541 139 541 125 541C111 541 97 541 83.2 541C69.3 541 55.7 541 41.8 541C28 541 14 541 7 541L0 541Z" fill="#feaa92"></path><path d="M0 512L7 510.7C14 509.3 28 506.7 41.8 504C55.7 501.3 69.3 498.7 83.2 502.2C97 505.7 111 515.3 125 519.5C139 523.7 153 522.3 167 515.3C181 508.3 195 495.7 208.8 494.2C222.7 492.7 236.3 502.3 250.2 503.2C264 504 278 496 292 491C306 486 320 484 334 488.3C348 492.7 362 503.3 375.8 508C389.7 512.7 403.3 511.3 417.2 509C431 506.7 445 503.3 459 503.7C473 504 487 508 501 509.8C515 511.7 529 511.3 542.8 512.2C556.7 513 570.3 515 584.2 512.3C598 509.7 612 502.3 626 502.8C640 503.3 654 511.7 668 513.2C682 514.7 696 509.3 709.8 502.2C723.7 495 737.3 486 751.2 481.5C765 477 779 477 793 478.5C807 480 821 483 835 487.2C849 491.3 863 496.7 876.8 500.3C890.7 504 904.3 506 918.2 503.3C932 500.7 946 493.3 953 489.7L960 486L960 541L953 541C946 541 932 541 918.2 541C904.3 541 890.7 541 876.8 541C863 541 849 541 835 541C821 541 807 541 793 541C779 541 765 541 751.2 541C737.3 541 723.7 541 709.8 541C696 541 682 541 668 541C654 541 640 541 626 541C612 541 598 541 584.2 541C570.3 541 556.7 541 542.8 541C529 541 515 541 501 541C487 541 473 541 459 541C445 541 431 541 417.2 541C403.3 541 389.7 541 375.8 541C362 541 348 541 334 541C320 541 306 541 292 541C278 541 264 541 250.2 541C236.3 541 222.7 541 208.8 541C195 541 181 541 167 541C153 541 139 541 125 541C111 541 97 541 83.2 541C69.3 541 55.7 541 41.8 541C28 541 14 541 7 541L0 541Z" fill="#f8cabe"></path><path d="M0 515L7 512.8C14 510.7 28 506.3 41.8 506.7C55.7 507 69.3 512 83.2 514C97 516 111 515 125 515C139 515 153 516 167 514.7C181 513.3 195 509.7 208.8 509.5C222.7 509.3 236.3 512.7 250.2 516.5C264 520.3 278 524.7 292 525.8C306 527 320 525 334 523C348 521 362 519 375.8 516C389.7 513 403.3 509 417.2 507.8C431 506.7 445 508.3 459 512.3C473 516.3 487 522.7 501 525.2C515 527.7 529 526.3 542.8 527.5C556.7 528.7 570.3 532.3 584.2 529.8C598 527.3 612 518.7 626 513.8C640 509 654 508 668 510.2C682 512.3 696 517.7 709.8 522.2C723.7 526.7 737.3 530.3 751.2 528.3C765 526.3 779 518.7 793 519.2C807 519.7 821 528.3 835 531.8C849 535.3 863 533.7 876.8 529.5C890.7 525.3 904.3 518.7 918.2 517.7C932 516.7 946 521.3 953 523.7L960 526L960 541L953 541C946 541 932 541 918.2 541C904.3 541 890.7 541 876.8 541C863 541 849 541 835 541C821 541 807 541 793 541C779 541 765 541 751.2 541C737.3 541 723.7 541 709.8 541C696 541 682 541 668 541C654 541 640 541 626 541C612 541 598 541 584.2 541C570.3 541 556.7 541 542.8 541C529 541 515 541 501 541C487 541 473 541 459 541C445 541 431 541 417.2 541C403.3 541 389.7 541 375.8 541C362 541 348 541 334 541C320 541 306 541 292 541C278 541 264 541 250.2 541C236.3 541 222.7 541 208.8 541C195 541 181 541 167 541C153 541 139 541 125 541C111 541 97 541 83.2 541C69.3 541 55.7 541 41.8 541C28 541 14 541 7 541L0 541Z" fill="#eaeaea"></path></svg>